{"title":"Warcraft 2016 HD-TC x264-Exclusive","uid":14845061,"size":2002804932,"categoryP":"video","categoryS":"movies","magnet":"?xt=urn:btih:54706bb98fbba66773f4bacb34c84f396b512d4c&amp;dn=Warcraft+2016+HD-TC+x264-Exclusive+++&amp;tr=udp%3A%2F%2Ftracker.leechers-paradise.org%3A6969&amp;tr=udp%3A%2F%2Fzer0day.ch%3A1337&amp;tr=udp%3A%2F%2Fopen.demonii.com%3A1337&amp;tr=udp%3A%2F%2Ftracker.coppersurfer.tk%3A6969&amp;tr=udp%3A%2F%2Fexodus.desync.com%3A6969","seeders":3,"leechers":0,"uploader":"makintos13","files":2,"time":1465415071,"description":"Warcraft 2016 HD-TC x264-Exclusive   \r\n\r\nscreen:\r\n \nhttps://imgmak.com/Tlh\r\n \nhttps://imgmak.com/Tll\r\n \nhttps://imgmak.com/TlV\r\n \nhttps://imgmak.com/Tle\r\n \nhttps://imgmak.com/Tlg\r\n \nhttps://imgmak.com/Tlo\r\n \nhttps://imgmak.com/TlN\r\n \nhttps://imgmak.com/TlQ\r\n\r\nSample: included\r\nSource: 720PHDTC\r\n\r\nFormat                         : Matroska\r\nFormat version                 : Version 4 / Version 2\r\nFile size                      : 1.85 GiB\r\nDuration                       : 2h 2mn\r\nOverall bit rate               : 2 161 Kbps\r\n\r\nVideo\r\nID                             : 1\r\nFormat                         : AVC\r\nFormat/Info                    : Advanced Video Codec\r\nFormat profile                 :   \r\nFormat settings, CABAC         : Yes\r\nFormat settings, ReFrames      : 3 frames\r\nCodec ID                       : V_MPEG4/ISO/AVC\r\nDuration                       : 2h 2mn\r\nBit rate                       : 2 000 Kbps\r\nWidth                          : 720 pixels\r\nHeight                         : 304 pixels\r\nDisplay aspect ratio           : 2.35:1\r\nFrame rate mode                : Constant\r\nFrame rate                     : 29.970 (30000/1001) fps\r\nColor space                    : YUV\r\nChroma subsampling             : 4:2:0\r\nBit depth                      : 8 bits\r\nScan type                      : Progressive\r\nBits/(Pixel*Frame)             : 0.305\r\nStream size                    : 1.72 GiB (93%)\r\n\r\nAudio\r\nID                             : 2\r\nFormat                         : AAC\r\nFormat/Info                    : Advanced Audio Codec\r\nFormat profile                 : LC\r\nCodec ID                       : A_AAC\r\nDuration                       : 2h 2mn\r\nBit rate                       : 154 Kbps\r\nChannel(s)                     : 2 channels\r\nChannel positions              : Front: L R\r\nSampling rate                  : 48.0 KHz\r\nFrame rate                     : 46.875 fps (1024 spf)\r\nCompression mode               : Lossy\r\nStream size                    : 135 MiB (7%)\r\nDefault                        : Yes\r\nForced                         : No","torrent":{"xt":"urn:btih:54706bb98fbba66773f4bacb34c84f396b512d4c","amp;dn":"Warcraft+2016+HD-TC+x264-Exclusive+++","amp;tr":["udp%3A%2F%2Ftracker.leechers-paradise.org%3A6969","udp%3A%2F%2Fzer0day.ch%3A1337","udp%3A%2F%2Fopen.demonii.com%3A1337","udp%3A%2F%2Ftracker.coppersurfer.tk%3A6969","udp%3A%2F%2Fexodus.desync.com%3A6969"],"infoHash":"54706bb98fbba66773f4bacb34c84f396b512d4c","infoHashBuffer":{"type":"Buffer","data":[84,112,107,185,143,187,166,103,115,244,186,203,52,200,79,57,107,81,45,76]},"announce":[],"urlList":[]}}